# xmcd
#
# Track frame offsets: 
#        150
#        25193
#        54706
#        70833
#        86789
#        101987
#        129761
#        158335
#        186498
#        208786
#        226533
#        244395
#        258071
#        285880
#        297887
#        321919
#        345477
#
# Disc length: 4798 seconds
#
# Revision: 0
# Processed by: cddbd v1.5.2PL0 Copyright (c) Steve Scherf et al.
# Submitted via: ExactAudioCopy v0.95a5
#
DISCID=ec12bc11
DTITLE=Various Artist - Akella Presents - Rockin' Blues - vol.17  CD1
DYEAR=2010
DGENRE=Blues
TTITLE0=She Don't Mind - HULA MONSTERS
TTITLE1=Blues Got Me Down - CHRIS HICKS
TTITLE2=Don't Munchen It (Studio Version) - The PIRATES
TTITLE3=Mailbox Blues - VIPPERS
TTITLE4=Going Out West - Dr. FEELGOOOD
TTITLE5=Blue Eternity - MIKE DUGAN and The BLUES MISSION
TTITLE6=Just Like Life - NASTY NED and The FAMOUS CHILI DOGS
TTITLE7=April Fool - SON PHILLIPS
TTITLE8=She's on Her Way Up - RICH HARPER
TTITLE9=Lightnin' - BLEU JACKSON
TTITLE10=Everybody's Gettin' Them Some - FRED JAMES
TTITLE11=Peepin' Through the Knothole - SMOKEHOUSE
TTITLE12=Bad Brain - CHRIS COBB Band
TTITLE13=Special Kind of Mambo - WAYNE ''BEAR'' SAULS
TTITLE14=Woman's Lookin' for a Man - C.C.CARR and The CATCH
TTITLE15=Stranger Blues - LITTLE JONNY and The GIANTS
TTITLE16=She's Alright - JO HELL
EXTD=
EXTT0=
EXTT1=
EXTT2=
EXTT3=
EXTT4=
EXTT5=
EXTT6=
EXTT7=
EXTT8=
EXTT9=
EXTT10=
EXTT11=
EXTT12=
EXTT13=
EXTT14=
EXTT15=
EXTT16=
PLAYORDER=
